<svg width="26" height="26" viewBox="0 0 26 26" fill="none" xmlns="http://www.w3.org/2000/svg">
<path fill-rule="evenodd" clip-rule="evenodd" d="M25.9615 13.0003C25.9615 20.1585 20.1586 25.9614 13.0003 25.9614C5.842 25.9614 0.0390625 20.1585 0.0390625 13.0003C0.0390625 5.84199 5.842 0.0390625 13.0003 0.0390625C20.1586 0.0390625 25.9615 5.84199 25.9615 13.0003ZM3.60668 12.8711L7.53866 14.1432L16.1376 8.7272C16.3608 8.58669 16.919 8.66568 16.7471 8.82182L9.65837 15.2616L9.39792 19.2187L11.9426 16.8243L15.5432 19.4889C16.2789 20.0334 16.8737 19.8585 17.0212 19.1537L19.5288 7.1688C19.6677 6.50484 19.0638 6.03961 18.6678 6.19219L3.73512 11.9459C3.08441 12.1966 3.15654 12.7254 3.60668 12.8711Z" fill="#EB3349"/>
</svg>
