<svg width="26" height="26" viewBox="0 0 26 26" fill="none" xmlns="http://www.w3.org/2000/svg">
<path fill-rule="evenodd" clip-rule="evenodd" d="M25.9616 13.0004C25.9616 5.84203 20.1586 0.0390902 13.0003 0.0390902L13.0003 0.0390625C5.84199 0.0390625 0.0390625 5.84203 0.0390625 13.0003C0.0390625 15.7459 0.893499 18.2915 2.34991 20.3874L2.34875 20.3873L1.09864 25.123L5.92486 23.8618L5.92483 23.8607C7.95912 25.1891 10.3894 25.9616 13.0003 25.9616C20.1586 25.9616 25.9616 20.1586 25.9616 13.0004ZM8.70921 5.90199C8.23432 5.78912 7.74611 5.7623 7.24296 5.83281C5.85648 6.35081 4.86392 8.24306 5.11788 10.0946C5.4339 12.3989 7.08578 14.5133 9.22435 16.5618C11.0287 18.2902 13.0993 19.7244 15.7763 20.3459C17.3006 20.6999 19.2881 20.4451 20.4653 18.8224C20.9361 18.1735 20.9942 17.241 20.8114 16.6087C19.4043 15.8751 18.0447 15.2033 16.9491 14.873C16.7772 14.9412 16.5127 15.2742 16.1995 15.6686C15.831 16.1326 15.3951 16.6814 14.9632 16.984C12.1726 15.8486 10.219 14.1404 9.09651 11.8637C9.24098 11.6301 9.44413 11.3535 9.64728 11.0769C10.0536 10.5236 10.4599 9.97036 10.3967 9.76123C9.95588 8.30197 9.38718 6.94466 8.70921 5.90199Z" fill="#EB3349"/>
</svg>
